<svg version="1.1" id="Layer_1" xmlns="http://www.w3.org/2000/svg" xmlns:xlink="http://www.w3.org/1999/xlink" x="0px" y="0px"
	 width="100%" viewBox="0 0 425 512" enable-background="new 0 0 425 512" xml:space="preserve">
<path fill="#B27F00" opacity="1.000000" stroke="none" 
	d="
M426.000000,468.000000 
	C426.000000,482.354218 426.000000,496.708466 425.531342,511.531189 
	C370.636322,511.999542 316.209991,511.987366 261.783661,512.041504 
	C259.522156,512.043762 257.261200,512.666382 255.000000,513.000000 
	C254.555557,513.000000 254.111099,513.000000 253.274155,512.711792 
	C252.398926,512.151184 251.916199,511.878693 251.228210,511.343750 
	C171.061035,431.101929 91.097870,351.123840 11.146523,271.133942 
	C9.625737,269.612427 8.244550,267.951355 6.887045,265.977234 
	C8.523746,263.326752 9.755823,260.739044 11.664930,258.827515 
	C94.517021,175.870026 177.432022,92.975410 260.313599,10.047392 
	C262.052582,8.307446 263.489227,6.265366 265.455994,4.236108 
	C319.230072,4.071992 372.615021,4.035996 426.000000,4.000000 
	C426.000000,23.687561 426.000000,43.375122 425.742920,63.513004 
	C425.276001,64.217682 425.066193,64.472038 424.841431,64.912605 
	C424.826477,65.098816 425.092468,65.361168 424.799927,65.490494 
	C423.779236,66.303360 423.031616,66.967430 422.325745,67.673233 
	C358.477173,131.517929 294.630310,195.364273 230.796310,259.223511 
	C229.393677,260.626709 228.140610,262.179382 226.456482,263.684784 
	C223.249756,266.277374 223.342896,266.877197 226.949326,268.646698 
	C227.762558,269.676178 228.419785,270.430267 229.125381,271.135956 
	C291.900513,333.919800 354.678833,396.700500 417.464081,459.474213 
	C418.284363,460.294312 419.196167,461.022888 420.055267,462.142120 
	C422.030182,464.326721 424.015106,466.163361 426.000000,468.000000 
z"/>
</svg>